<?xml version="1.0" standalone="no"?>
<!DOCTYPE svg PUBLIC "-//W3C//DTD SVG 20010904//EN"
 "http://www.w3.org/TR/2001/REC-SVG-20010904/DTD/svg10.dtd">
<svg version="1.0" xmlns="http://www.w3.org/2000/svg"
 width="2151.000000pt" height="2151.000000pt" viewBox="0 0 2151.000000 2151.000000"
 preserveAspectRatio="xMidYMid meet">
<metadata>
Created by potrace 1.11, written by Peter Selinger 2001-2013
</metadata>
<g transform="translate(0.000000,2151.000000) scale(0.100000,-0.100000)"
fill="#000000" stroke="none">
<path d="M5408 17945 c-2 -1 -28 -5 -59 -8 -206 -22 -328 -134 -411 -375 -32
-90 -108 -384 -102 -391 2 -2 25 16 51 40 27 24 75 67 108 96 33 28 74 63 90
78 53 45 354 287 527 422 163 127 166 131 135 136 -33 5 -333 7 -339 2z"/>
<path d="M6430 17865 c-74 -24 -117 -73 -208 -234 -24 -43 -194 -301 -219
-331 -6 -8 -60 -78 -119 -155 -59 -77 -197 -248 -308 -380 -110 -132 -207
-248 -216 -259 -8 -10 -20 -23 -26 -30 -29 -32 -229 -285 -299 -378 -226 -304
-407 -671 -488 -993 -38 -147 -55 -232 -63 -305 -3 -36 -8 -67 -9 -70 -6 -10
-18 -231 -18 -325 0 -87 11 -276 17 -312 2 -10 7 -45 11 -78 8 -76 48 -271 80
-399 28 -110 66 -178 117 -213 34 -23 118 -56 125 -50 2 2 -3 31 -12 63 -17
64 -52 261 -60 334 -19 168 -22 224 -20 380 2 96 6 193 10 215 3 22 13 83 21
135 47 288 155 568 326 845 62 100 159 235 168 235 18 0 46 -81 55 -155 16
-129 41 -160 127 -158 101 1 126 42 179 290 80 377 111 480 199 658 134 269
330 466 593 593 103 51 198 86 259 98 318 60 608 -25 823 -241 64 -64 89 -104
124 -192 38 -96 59 -118 110 -118 51 0 176 79 267 169 188 187 184 358 -15
626 -73 100 -255 280 -364 361 -134 100 -285 175 -392 194 l-40 8 55 -44 c30
-23 87 -68 125 -98 174 -138 290 -288 319 -414 12 -51 13 -199 2 -245 -16 -68
-16 -68 -45 -36 -15 16 -40 46 -56 68 -30 40 -128 108 -262 183 -76 42 -223
142 -283 192 -134 113 -216 233 -275 401 -14 41 -38 88 -53 104 -58 62 -175
89 -262 61z"/>
<path d="M8130 17702 c0 -4 68 -86 152 -182 268 -310 365 -442 453 -620 26
-52 57 -103 68 -112 29 -23 76 -23 84 0 56 166 120 207 219 139 27 -19 73 -50
103 -70 29 -20 61 -37 71 -37 10 0 69 -16 132 -36 133 -42 203 -49 284 -28
109 29 111 25 -58 133 -84 53 -234 151 -333 216 -99 66 -189 124 -200 131 -11
6 -65 39 -120 74 -237 149 -512 285 -729 359 -131 45 -126 44 -126 33z"/>
<path d="M5940 17673 c-418 -198 -615 -318 -829 -504 -42 -36 -84 -76 -95 -87
-18 -21 -18 -22 0 -29 33 -13 137 -7 187 10 65 23 129 30 163 17 34 -13 87
-61 76 -69 -4 -3 -34 -37 -67 -76 -33 -38 -64 -75 -70 -81 -5 -6 -27 -29 -47
-52 -60 -67 -142 -120 -213 -139 -11 -3 -74 -6 -140 -8 -139 -2 -179 -17 -238
-85 -45 -53 -137 -227 -157 -298 -6 -18 -9 -30 -21 -67 -7 -22 -14 -42 -14
-45 -1 -3 -9 -32 -19 -65 -10 -33 -20 -71 -23 -85 -2 -14 -8 -41 -13 -60 -5
-19 -12 -51 -15 -70 -3 -19 -7 -46 -10 -60 -31 -169 -45 -419 -30 -545 9 -79
36 -195 44 -195 4 0 15 42 24 93 35 205 83 348 184 555 118 241 354 566 617
852 108 117 368 428 450 537 125 167 223 334 305 515 22 49 26 68 14 67 -5 0
-33 -12 -63 -26z"/>
<path d="M7868 17534 c-16 -8 -28 -17 -28 -20 0 -3 39 -57 86 -120 332 -444
467 -724 520 -1079 8 -53 4 -243 -6 -317 -22 -154 -80 -330 -156 -478 -21 -41
-40 -78 -42 -83 -10 -20 156 70 289 158 116 78 191 151 227 224 25 52 27 65
26 176 0 128 -27 259 -92 460 -104 316 -291 644 -498 871 -89 98 -181 191
-203 206 -32 22 -86 22 -123 2z"/>
<path d="M4325 17334 c-362 -241 -722 -710 -975 -1266 -66 -145 -67 -146 -113
-268 -137 -356 -234 -755 -265 -1090 -14 -146 -7 -518 11 -625 35 -206 103
-408 159 -467 24 -26 33 -30 64 -25 19 3 62 26 97 53 155 118 310 154 465 109
132 -39 345 -177 477 -311 44 -45 92 -89 107 -99 34 -21 95 -22 116 -1 22 22
6 69 -94 268 -170 340 -273 656 -320 977 -4 25 -8 55 -10 66 -24 127 -23 590
1 735 2 14 6 43 10 65 23 160 53 307 85 418 52 176 66 220 108 332 48 131 49
132 117 285 62 138 124 280 123 283 0 1 5 22 12 47 7 25 14 54 17 65 14 53 12
223 -3 281 -20 77 -84 208 -104 212 -8 1 -46 -19 -85 -44z"/>
<path d="M8949 16503 c0 -16 -3 -37 -5 -48 -8 -31 -8 -424 0 -484 7 -62 28
-111 58 -138 18 -16 37 -18 177 -16 234 2 308 -13 686 -142 186 -64 243 -80
236 -67 -16 30 -162 164 -232 214 -62 45 -274 178 -283 178 -2 0 -58 32 -123
72 -172 104 -287 191 -369 278 -61 65 -76 85 -106 133 -16 26 -32 47 -34 47
-2 0 -4 -12 -5 -27z"/>
<path d="M8043 16298 c-142 -181 -200 -268 -241 -364 -29 -68 -36 -94 -48
-159 -26 -152 -112 -374 -187 -484 -127 -187 -347 -294 -621 -300 -24 -1 -27
-3 -16 -16 23 -28 158 -106 226 -131 219 -79 441 -2 662 230 357 377 508 895
380 1309 -11 37 -24 67 -28 67 -4 0 -61 -69 -127 -152z"/>
<path d="M6708 16255 c-2 -2 -28 -6 -58 -10 -198 -24 -381 -145 -480 -317 -60
-104 -118 -281 -136 -413 -7 -50 -7 -262 1 -295 3 -14 10 -51 16 -83 46 -255
268 -616 482 -785 149 -117 314 -187 515 -217 83 -12 365 -13 422 -2 14 3 48
8 75 12 102 13 239 47 305 77 76 33 98 47 148 93 78 70 114 151 117 261 1 46
-2 107 -7 136 -12 66 -78 268 -88 268 -13 0 -102 -74 -180 -150 -86 -84 -135
-171 -146 -255 -8 -64 -30 -107 -52 -103 -9 2 -31 25 -49 52 -17 26 -48 60
-68 75 -37 25 -42 26 -189 27 -266 1 -490 69 -681 208 -137 99 -253 289 -280
457 -3 24 -9 57 -11 74 -7 43 -7 195 0 235 45 247 209 437 524 608 53 29 68
41 55 44 -21 5 -230 8 -235 3z"/>
<path d="M10354 16251 c3 -4 8 -28 11 -52 3 -24 7 -51 10 -59 2 -8 6 -37 9
-65 4 -27 8 -68 11 -90 4 -38 7 -85 20 -272 3 -43 8 -100 10 -128 2 -27 7 -79
10 -115 3 -36 8 -76 10 -90 2 -14 7 -45 10 -70 9 -75 55 -248 87 -333 57 -148
155 -305 267 -427 l42 -45 -6 35 c-25 170 -13 298 40 407 53 109 91 146 282
267 41 26 65 68 59 102 -3 15 -18 45 -33 67 -31 45 -240 293 -317 377 -117
128 -499 500 -512 500 -8 0 -13 -4 -10 -9z"/>
<path d="M9063 15639 c-44 -13 -92 -64 -121 -127 -13 -29 -25 -58 -26 -65 -1
-7 -8 -37 -14 -67 -6 -30 -13 -66 -16 -80 -25 -151 -122 -399 -228 -585 -22
-38 -48 -84 -58 -101 -10 -17 -43 -71 -74 -122 -91 -146 -106 -204 -72 -269
23 -45 132 -139 200 -173 90 -45 157 -38 241 26 63 47 64 114 6 207 -65 101
-80 152 -86 283 -9 228 98 382 327 470 73 28 173 36 248 20 89 -19 194 -98
271 -206 35 -48 98 -177 123 -252 22 -67 74 -174 91 -188 24 -20 77 -19 117 1
46 23 166 113 196 148 126 142 165 230 161 362 -4 138 -61 245 -198 378 -169
162 -406 267 -696 306 -22 3 -51 8 -65 10 -14 2 -56 7 -95 11 -38 3 -81 8 -95
10 -77 11 -108 12 -137 3z"/>
<path d="M8624 15362 c-223 -136 -321 -287 -312 -482 3 -79 40 -230 56 -230 9
0 125 163 180 254 87 141 136 276 148 403 4 40 7 76 6 80 -1 16 -20 11 -78
-25z"/>
<path d="M11314 15056 c-64 -30 -127 -85 -148 -130 -9 -19 -18 -63 -21 -98
-27 -328 -101 -579 -290 -983 -21 -44 -60 -127 -88 -185 -119 -250 -142 -302
-192 -426 -30 -73 -63 -151 -75 -174 -12 -24 -22 -58 -22 -76 0 -37 36 -104
56 -104 19 0 93 67 125 113 15 23 50 83 76 132 169 315 411 592 695 792 113
79 154 95 358 138 196 41 266 69 301 120 45 67 31 172 -37 271 -50 74 -580
610 -616 624 -41 15 -66 12 -122 -14z"/>
<path d="M5560 14901 c-75 -24 -160 -98 -197 -173 -12 -24 -42 -143 -67 -268
-25 -124 -51 -241 -56 -260 -6 -19 -13 -42 -15 -51 -45 -202 -193 -637 -290
-854 -48 -106 -32 -210 45 -298 36 -42 90 -69 123 -63 12 3 27 5 33 5 6 1 49
28 95 62 134 98 404 222 599 276 87 23 209 52 275 63 105 18 118 20 240 46
360 78 785 238 1064 402 l45 26 -30 9 c-16 6 -157 11 -314 12 -157 1 -292 5
-300 7 -8 3 -28 8 -45 13 -16 4 -64 19 -105 33 -59 20 -96 25 -175 26 -137 1
-154 -8 -292 -163 -35 -38 -45 -44 -90 -48 -111 -11 -233 66 -233 147 0 12 15
47 33 78 50 87 69 145 69 220 2 108 -24 178 -154 422 -33 61 -66 140 -79 189
-27 103 -57 142 -114 147 -22 1 -51 -1 -65 -5z"/>
<path d="M10390 14703 c-32 -12 -54 -41 -90 -118 -20 -44 -63 -119 -94 -167
-106 -162 -128 -232 -101 -324 14 -49 28 -69 96 -137 58 -59 79 -87 79 -106 0
-52 -21 -100 -71 -162 -65 -82 -98 -138 -121 -207 -49 -148 6 -308 161 -473
l69 -74 42 90 c191 410 268 796 236 1185 -11 126 -52 356 -80 440 -16 49 -72
73 -126 53z"/>
<path d="M14687 14694 c-1 -1 -58 -5 -126 -8 -68 -4 -142 -9 -165 -12 -68 -8
-255 -35 -279 -40 -12 -2 -35 -6 -52 -9 -230 -39 -721 -190 -807 -249 -64 -43
-72 -151 -16 -207 38 -37 67 -37 160 0 225 89 581 190 763 216 23 3 50 7 60 9
11 2 61 9 110 15 50 6 110 13 135 17 72 9 559 12 630 4 36 -5 94 -11 130 -14
57 -4 122 -13 225 -31 1229 -214 2251 -1032 2748 -2196 112 -263 213 -609 251
-863 12 -74 52 -114 114 -109 6 0 22 1 33 2 12 0 39 19 62 41 l40 40 -6 73
c-4 39 -9 86 -12 103 -5 26 -65 283 -79 334 -33 125 -125 385 -177 498 -16 35
-29 66 -29 68 0 17 -146 292 -221 417 -209 347 -485 677 -779 932 -30 26 -68
60 -85 74 -59 52 -234 181 -346 254 -328 215 -608 346 -999 469 -52 16 -102
31 -110 33 -8 2 -51 12 -95 23 -93 24 -317 68 -390 76 -27 4 -66 9 -85 11 -96
15 -288 26 -458 29 -79 1 -144 1 -145 0z"/>
<path d="M8062 13934 c-118 -26 -263 -105 -472 -258 -42 -30 -107 -66 -147
-81 -163 -60 -230 -131 -232 -245 -1 -60 12 -106 69 -230 26 -58 53 -129 60
-158 13 -57 17 -164 7 -222 -37 -219 -290 -526 -467 -565 -54 -12 -138 -13
-184 -3 -22 6 -50 12 -61 14 -11 2 -81 21 -155 42 -74 22 -166 42 -203 45 -53
4 -74 11 -93 28 -51 48 -71 192 -43 319 11 52 13 87 7 113 -9 40 -35 87 -48
87 -4 0 -27 -27 -51 -61 -57 -80 -104 -134 -159 -187 -150 -145 -290 -134
-456 36 -52 53 -54 54 -97 48 -41 -6 -85 -35 -88 -56 -1 -6 -2 -16 -3 -22 -7
-43 40 -104 187 -246 165 -160 468 -309 723 -356 35 -7 98 -17 139 -22 22 -3
54 -7 70 -10 36 -5 329 -5 368 0 15 2 55 7 90 11 34 4 64 8 67 10 3 2 25 6 49
10 23 3 86 19 139 34 273 79 477 195 654 372 116 117 130 140 117 195 -5 21
-9 66 -10 99 -1 147 82 248 245 296 73 22 88 25 169 38 26 5 50 11 54 15 14
14 -47 61 -135 103 -54 26 -100 56 -109 70 -17 25 -17 36 -12 150 4 78 -11 96
-121 148 -50 24 -83 47 -93 65 -10 16 -17 30 -17 33 0 3 24 13 54 21 219 64
406 52 531 -34 157 -108 257 -292 335 -620 46 -193 113 -292 235 -349 54 -26
76 -32 165 -47 14 -3 49 -9 79 -14 212 -38 288 13 341 230 10 41 36 136 58
212 40 135 53 189 139 573 55 247 58 269 43 306 -14 32 -37 48 -87 60 -36 8
-66 -10 -148 -85 -58 -53 -192 -141 -266 -175 -164 -73 -338 -84 -479 -29 -57
22 -139 72 -176 106 -46 43 -146 111 -209 141 -120 58 -245 73 -373 45z"/>
<path d="M12200 13895 c-91 -20 -146 -51 -169 -92 -9 -18 -8 -35 5 -85 49
-186 -2 -320 -151 -395 -36 -19 -177 -70 -215 -78 -24 -5 -106 -34 -151 -53
l-41 -18 108 -33 c461 -138 571 -236 559 -496 -4 -85 -5 -95 -30 -221 -9 -43
-19 -92 -21 -108 -3 -16 -9 -39 -14 -50 -23 -61 10 -153 70 -196 53 -38 108
-23 205 55 140 114 217 90 274 -83 54 -168 110 -212 190 -150 35 27 122 143
175 233 46 79 120 255 130 308 2 15 7 35 10 45 27 89 38 301 22 442 -27 245
-149 504 -327 695 -106 113 -288 243 -385 275 -51 17 -176 20 -244 5z"/>
<path d="M3522 13545 c-100 -47 -195 -133 -234 -213 -38 -79 -31 -153 26 -292
105 -254 289 -564 451 -759 198 -238 489 -522 551 -537 49 -12 78 -1 101 42
26 47 28 38 -49 202 -70 149 -85 185 -118 267 -68 170 -97 293 -105 446 -3 57
-7 118 -10 134 -3 17 -8 46 -11 65 -8 54 -64 212 -85 242 -11 14 -19 30 -19
35 0 19 -124 171 -211 260 -137 139 -184 156 -287 108z"/>
<path d="M4371 13019 c-20 -22 -26 -56 -21 -119 3 -44 60 -261 97 -370 174
-514 477 -928 878 -1199 63 -43 98 -64 217 -130 145 -80 513 -201 613 -201 49
0 81 34 90 94 7 48 1 209 -9 256 -3 14 -8 39 -12 55 -13 61 -35 94 -70 104
-28 8 -52 3 -148 -30 -132 -46 -229 -55 -336 -33 -66 14 -78 18 -165 62 -39
19 -154 94 -185 119 -10 8 46 42 95 58 73 22 89 25 205 30 132 6 213 21 264
47 l41 21 -67 17 c-90 23 -204 91 -298 177 -19 17 -46 41 -60 53 -14 12 -54
49 -90 84 -135 129 -235 198 -347 237 -67 24 -210 33 -287 18 -27 -5 -51 -8
-52 -6 -1 1 15 40 37 86 52 112 73 184 71 253 -3 137 -74 216 -269 295 -114
47 -163 53 -192 22z"/>
<path d="M11255 12956 c-38 -13 -85 -30 -103 -40 l-33 -17 23 -18 c30 -24 68
-43 153 -76 164 -66 193 -122 144 -281 -118 -383 -379 -540 -727 -439 -89 26
-211 87 -313 157 -121 83 -150 98 -191 98 -40 0 -73 -21 -93 -60 -21 -41 -19
-64 11 -100 21 -25 231 -186 462 -354 23 -17 68 -51 100 -75 87 -66 137 -92
184 -96 55 -4 75 4 177 74 100 67 172 105 220 116 162 35 250 -55 363 -370 22
-60 50 -129 64 -152 72 -123 244 -172 321 -90 58 62 51 91 -36 137 -179 96
-227 249 -152 485 39 119 40 126 49 190 19 129 -39 234 -169 307 -95 53 -76
172 45 298 138 142 104 213 -141 296 -109 38 -257 41 -358 10z"/>
<path d="M13399 12666 c-37 -18 -60 -61 -112 -206 -106 -295 -253 -627 -352
-793 -109 -184 -263 -353 -410 -451 -106 -71 -238 -130 -336 -152 -98 -21
-193 -34 -276 -36 -83 -2 -101 -6 -123 -24 -22 -19 -25 -31 -27 -89 l-2 -66
27 6 c15 3 41 9 57 13 34 8 231 7 485 -2 200 -6 269 3 371 51 108 50 182 123
261 257 57 97 98 135 177 161 70 23 254 52 341 54 114 2 172 23 233 82 57 55
56 60 -17 73 -98 18 -192 80 -228 149 -38 76 -21 207 39 298 59 89 194 135
406 138 46 1 44 4 -33 88 -30 33 -113 127 -185 209 -209 239 -243 267 -296
240z"/>
<path d="M8863 12459 c-32 -16 -46 -34 -87 -116 -45 -89 -133 -226 -260 -406
-54 -76 -166 -257 -166 -269 0 -21 247 84 346 147 66 42 208 148 240 180 30
30 164 148 204 181 64 53 81 74 87 109 7 42 -8 63 -84 111 -112 72 -215 95
-280 63z"/>
<path d="M7665 12169 c-101 -14 -335 -108 -660 -264 -87 -42 -181 -86 -208
-97 -57 -25 -58 -25 76 -73 196 -69 358 -98 567 -99 126 0 274 9 290 19 3 1
25 6 50 9 151 21 290 76 325 130 20 29 12 50 -29 75 -33 21 -115 104 -175 177
-40 50 -115 108 -156 121 -16 5 -52 6 -80 2z"/>
<path d="M9720 12004 c-316 -216 -699 -402 -1055 -513 -71 -22 -155 -43 -185
-46 -163 -19 -201 -59 -158 -170 10 -27 35 -97 54 -155 19 -58 47 -122 61
-143 35 -51 91 -78 158 -78 67 0 392 84 565 146 380 137 623 380 675 675 13
69 13 245 1 295 -2 11 -5 28 -5 38 -1 9 -4 17 -8 17 -5 -1 -51 -30 -103 -66z"/>
<path d="M10064 11893 c-20 -129 -3 -213 91 -453 53 -133 65 -185 66 -263 0
-73 -11 -120 -41 -177 -18 -34 -14 -70 8 -84 7 -4 134 -35 215 -51 10 -2 57
-7 105 -10 136 -10 219 14 283 82 124 129 113 358 -22 492 -60 60 -668 511
-688 511 -5 0 -13 -21 -17 -47z"/>
<path d="M14043 11754 c10 -169 -73 -327 -226 -433 -105 -72 -392 -188 -510
-205 -62 -10 -133 -45 -146 -72 -24 -54 2 -134 50 -149 20 -7 90 9 114 25 36
24 143 77 214 106 151 61 242 79 396 78 188 -2 346 -55 538 -182 38 -24 91
-53 119 -64 131 -50 337 -1 374 88 20 49 1 87 -76 155 -34 29 -72 63 -84 74
-20 19 -465 390 -646 539 -47 38 -93 76 -102 84 -17 14 -18 11 -15 -44z"/>
<path d="M6633 11417 c-40 -18 -55 -70 -59 -203 -4 -128 2 -158 40 -203 50
-57 27 -55 828 -57 l737 -1 -11 21 c-26 52 -84 108 -143 141 -56 32 -221 82
-329 101 -17 2 -47 9 -66 14 -30 8 -532 109 -612 124 -86 15 -200 40 -245 52
-68 20 -113 23 -140 11z"/>
<path d="M14590 10684 c-47 -18 -110 -51 -145 -74 -69 -47 -173 -99 -259 -129
-98 -35 -121 -39 -247 -47 -174 -12 -346 28 -545 127 -76 38 -117 53 -145 52
-43 -1 -124 -37 -133 -58 -10 -26 122 -113 228 -152 41 -15 288 -91 316 -98 8
-2 48 -17 87 -33 142 -58 223 -127 272 -231 25 -53 26 -64 25 -201 -1 -101 -6
-159 -17 -192 -8 -27 -13 -48 -11 -48 3 0 57 48 122 108 64 59 122 112 128
117 24 22 122 112 184 169 162 151 305 283 324 299 68 58 167 163 172 182 22
87 -10 149 -93 186 -42 18 -232 35 -263 23z"/>
<path d="M12367 10654 c-1 -1 -36 -5 -76 -8 -41 -4 -77 -9 -80 -11 -4 -1 -33
-6 -66 -9 -33 -4 -69 -9 -80 -12 -32 -7 -84 -13 -180 -20 -90 -6 -127 -14 -66
-14 76 0 334 -64 430 -107 361 -160 612 -414 819 -828 101 -201 118 -249 172
-465 32 -133 69 -231 100 -268 44 -53 131 -58 206 -12 31 20 115 112 141 155
52 87 120 192 163 249 43 60 50 75 50 116 l0 47 -97 1 c-115 1 -153 7 -209 32
-76 33 -134 114 -153 213 -16 86 22 135 159 211 72 39 143 101 137 119 -10 30
-166 64 -372 82 -109 9 -135 14 -203 37 -84 29 -131 72 -206 187 -138 211
-276 294 -504 304 -45 2 -83 2 -85 1z"/>
<path d="M10229 10634 c-71 -21 -76 -33 -46 -106 60 -147 54 -228 -38 -478
-74 -202 -85 -247 -85 -350 0 -62 12 -135 24 -147 7 -7 -13 -22 363 262 175
131 333 255 352 275 85 89 95 209 33 380 -29 82 -60 118 -122 146 -34 15 -70
17 -263 15 -38 -1 -72 1 -77 4 -20 12 -98 12 -141 -1z"/>
<path d="M8538 10630 c-34 -6 -79 -30 -104 -55 -19 -19 -55 -95 -71 -149 -8
-28 -30 -86 -50 -129 -31 -70 -33 -81 -23 -113 15 -44 64 -71 168 -90 35 -7
247 -72 352 -109 171 -59 352 -135 520 -217 181 -89 247 -128 300 -178 108
-102 167 -124 224 -79 74 59 82 180 19 319 -116 259 -336 474 -616 604 -215
100 -626 212 -719 196z"/>
<path d="M6655 10602 c-26 -5 -55 -31 -65 -58 -10 -25 -23 -141 -23 -199 0
-93 27 -201 59 -236 26 -29 64 -31 144 -9 108 30 167 42 270 56 60 8 78 11
120 19 19 3 82 15 140 25 135 25 152 28 230 46 36 9 76 18 90 20 32 7 187 47
328 86 133 36 188 70 197 121 9 48 -15 102 -51 114 -27 8 -238 9 -1019 4 -159
-1 -297 0 -305 3 -23 8 -92 13 -115 8z"/>
<path d="M6025 10484 c-261 -80 -315 -101 -465 -177 -320 -164 -620 -428 -837
-737 -51 -73 -173 -274 -173 -286 0 -2 -16 -36 -35 -75 -34 -70 -111 -277
-119 -322 -2 -12 -11 -49 -19 -82 -9 -33 -19 -80 -22 -105 -4 -24 -9 -48 -11
-52 -2 -3 -5 -30 -5 -58 -2 -46 2 -56 29 -83 46 -45 106 -43 194 6 89 50 96
69 73 193 -34 183 1 291 116 349 44 23 93 33 240 50 40 5 53 14 115 77 136
139 256 224 594 420 236 137 320 188 320 193 0 2 -71 1 -157 -2 -264 -11 -362
-8 -428 11 -55 16 -146 64 -144 76 2 16 174 146 227 172 55 27 75 32 140 32
92 0 214 -18 397 -60 11 -2 42 -5 69 -5 39 -1 54 4 73 23 56 57 75 272 34 380
-37 95 -67 104 -206 62z"/>
<path d="M11751 10267 c-40 -20 -60 -57 -111 -208 -155 -452 -280 -523 -566
-319 -53 38 -113 75 -132 81 -51 17 -114 6 -161 -27 -23 -16 -101 -71 -173
-122 -73 -50 -159 -116 -190 -145 -32 -29 -99 -75 -149 -102 -93 -51 -149
-101 -149 -135 0 -67 67 -150 123 -152 45 -2 72 18 167 123 73 79 93 95 174
134 145 70 245 83 358 44 123 -41 259 -159 398 -345 95 -127 125 -186 125
-245 0 -65 -34 -99 -160 -159 -103 -50 -164 -95 -149 -110 22 -21 125 -52 189
-57 93 -7 201 20 328 82 168 82 187 128 106 251 -83 127 -108 214 -82 289 25
73 92 122 225 165 l77 25 -65 105 c-194 309 -212 477 -71 684 44 63 34 117
-26 144 -35 15 -55 15 -86 -1z"/>
<path d="M18505 10258 c-38 -22 -43 -34 -60 -138 -51 -312 -177 -692 -336
-1015 -441 -898 -1209 -1567 -2150 -1873 -202 -66 -462 -126 -641 -148 -24 -2
-53 -7 -66 -10 -91 -19 -582 -26 -762 -10 -145 12 -144 12 -313 40 -253 43
-556 127 -777 216 -86 35 -118 34 -157 -5 -39 -39 -46 -93 -22 -157 18 -46 54
-64 279 -142 434 -150 847 -219 1315 -219 127 0 335 9 385 17 14 3 52 7 85 10
83 9 164 21 210 32 6 1 30 5 55 8 195 29 628 162 850 263 108 49 256 123 329
165 46 26 86 48 88 48 8 0 317 207 338 227 11 10 47 38 80 63 148 110 367 319
536 510 147 166 311 395 428 595 29 50 56 97 62 105 23 39 151 305 184 385 38
89 114 296 120 325 2 8 13 44 24 80 20 66 55 200 66 255 10 53 16 79 25 120
21 95 22 159 2 194 -32 60 -123 90 -177 59z"/>
<path d="M7348 9886 c-1 -2 -57 -6 -123 -10 -127 -7 -144 -9 -270 -31 -110
-20 -114 -21 -165 -35 -52 -14 -70 -18 -87 -19 -15 -1 -18 -21 -4 -21 6 0 90
-39 188 -86 490 -237 711 -337 779 -350 92 -19 172 8 243 80 61 63 181 246
181 276 0 15 -8 36 -17 47 -29 34 -155 79 -273 98 -19 3 -60 10 -90 16 -66 14
-85 16 -225 24 -60 4 -115 8 -122 10 -6 2 -13 2 -15 1z"/>
<path d="M8410 9795 c0 -3 25 -36 55 -74 94 -116 218 -311 284 -446 35 -71 71
-138 80 -149 52 -59 127 -63 288 -15 90 27 125 58 117 103 -3 17 -11 40 -19
51 -24 36 -245 254 -318 313 -131 106 -295 190 -407 207 -25 3 -53 9 -62 11
-10 3 -18 3 -18 -1z"/>
<path d="M4248 9750 c-24 -14 -124 -107 -224 -206 -333 -330 -503 -553 -649
-849 -104 -212 -129 -290 -122 -384 15 -201 199 -385 395 -396 17 0 57 34 156
135 170 173 180 184 225 250 41 59 90 174 89 206 0 10 5 44 11 74 6 30 20 105
31 165 23 130 21 119 55 270 37 165 93 356 149 504 59 159 60 212 4 242 -39
21 -76 18 -120 -11z"/>
<path d="M12695 9631 c-3 -6 -14 -37 -24 -69 -37 -115 -79 -180 -134 -208 -67
-36 -138 -24 -274 42 -61 31 -99 43 -112 39 -12 -3 -47 -27 -78 -52 -32 -26
-60 -48 -62 -49 -2 -2 21 -36 52 -76 178 -236 190 -390 40 -557 -69 -78 -234
-198 -400 -293 -18 -10 -50 -28 -70 -40 -21 -11 -55 -30 -75 -41 -21 -11 -37
-22 -35 -23 1 -2 64 -19 138 -38 232 -60 338 -115 380 -198 26 -52 26 -96 0
-184 -53 -176 -34 -203 184 -258 150 -39 225 -33 298 21 31 24 118 127 239
283 15 19 62 80 105 135 93 118 129 170 170 245 42 78 89 205 102 275 6 33 13
71 16 85 10 46 7 224 -4 293 -34 205 -128 392 -285 571 -77 87 -151 129 -171
97z"/>
<path d="M6240 9609 c-117 -13 -153 -20 -237 -48 -103 -34 -135 -48 -225 -99
-142 -78 -341 -234 -485 -378 -52 -52 -81 -98 -77 -121 1 -7 2 -19 3 -26 2
-21 72 -88 108 -103 70 -30 89 -22 188 80 95 100 151 136 210 136 97 0 150
-53 288 -289 39 -67 73 -93 125 -96 66 -3 68 2 42 101 -89 344 27 480 435 511
246 19 365 0 481 -75 187 -122 297 -334 264 -511 -5 -31 -34 -105 -65 -166
-84 -166 -105 -277 -70 -374 43 -123 138 -197 420 -327 103 -47 169 -89 280
-179 157 -127 253 -156 382 -117 59 18 188 89 203 112 11 16 176 123 238 154
271 135 523 119 752 -47 30 -22 66 -50 80 -63 79 -73 171 -75 217 -5 21 32 21
116 0 186 -9 28 -32 111 -53 185 -185 683 -232 789 -378 859 -90 44 -198 54
-327 31 -156 -28 -234 -106 -283 -280 -71 -256 -110 -348 -201 -485 -139 -209
-302 -324 -463 -326 -87 -2 -130 6 -226 43 l-79 31 62 22 c101 37 121 59 207
232 90 182 131 221 257 247 l61 13 -63 21 c-36 12 -114 29 -175 38 -115 17
-206 43 -229 66 -43 43 -49 65 -51 200 -2 149 -8 168 -81 246 -67 72 -289 199
-545 312 -139 61 -551 231 -569 235 -9 2 -28 8 -43 14 -82 32 -272 52 -378 40z"/>
<path d="M10506 8592 c-3 -20 -6 -51 -6 -68 0 -29 71 -197 185 -439 80 -170
125 -267 125 -270 0 -2 18 -41 39 -87 168 -360 288 -757 316 -1043 7 -65 42
-151 76 -182 59 -54 147 -63 235 -23 64 30 128 94 354 360 63 74 127 149 141
165 141 160 175 208 182 255 5 28 -8 59 -32 77 -19 14 -93 40 -136 47 -162 28
-290 69 -430 137 -174 85 -342 220 -492 396 -56 66 -253 351 -253 367 0 4 -28
48 -62 99 -59 88 -174 213 -216 236 -17 9 -20 7 -26 -27z"/>
<path d="M5035 8546 c-80 -37 -128 -121 -128 -227 0 -60 6 -79 56 -186 82
-177 160 -377 187 -482 5 -20 18 -70 30 -111 12 -41 23 -82 25 -90 2 -8 15
-62 29 -120 24 -100 71 -321 82 -385 12 -76 37 -153 59 -187 70 -106 183 -159
246 -114 29 20 231 293 273 368 97 175 104 323 24 510 -42 100 -43 156 -3 199
62 66 161 87 240 50 44 -20 67 -41 139 -125 86 -101 119 -110 234 -65 120 48
295 86 437 94 22 2 146 3 275 4 l235 1 -65 31 c-171 81 -252 116 -405 174
-294 111 -612 199 -830 230 -22 3 -49 7 -60 10 -11 2 -40 7 -65 10 -25 3 -94
19 -155 36 -60 16 -119 31 -131 34 -35 8 -193 73 -281 116 -119 57 -194 103
-255 155 -58 50 -117 84 -145 84 -10 -1 -31 -7 -48 -14z"/>
<path d="M10269 8479 c-68 -49 -146 -133 -170 -186 -50 -107 -18 -240 91 -379
63 -80 87 -127 99 -187 8 -46 -4 -92 -29 -107 -47 -29 -113 -100 -135 -144
-45 -92 -34 -151 66 -351 33 -66 62 -133 65 -149 8 -45 28 -88 59 -124 85
-101 222 -75 255 48 31 117 47 590 27 799 -17 173 -56 345 -114 501 -53 141
-141 310 -162 310 -4 0 -28 -14 -52 -31z"/>
<path d="M4330 8162 c-19 -15 -89 -80 -155 -146 -66 -65 -146 -138 -177 -162
-74 -57 -188 -118 -261 -139 -58 -17 -169 -22 -210 -9 -59 17 -137 64 -191
115 -135 126 -194 141 -235 60 -24 -47 -37 -112 -56 -286 -3 -27 -7 -63 -9
-80 -2 -16 -7 -64 -10 -105 -4 -41 -9 -86 -11 -100 -23 -136 -24 -438 -1 -635
2 -16 7 -62 11 -102 36 -366 147 -796 295 -1145 106 -247 216 -444 391 -698
103 -149 248 -322 412 -489 172 -175 227 -206 297 -164 72 42 144 270 133 427
-7 117 -29 183 -134 407 -134 286 -205 476 -272 724 -36 135 -45 173 -51 215
-6 40 -16 94 -21 110 -2 8 -7 40 -11 70 -3 30 -7 66 -9 80 -10 74 -19 241 -18
355 0 176 9 304 33 445 5 30 12 72 16 94 13 87 48 230 86 351 18 55 33 105 34
110 7 38 108 276 171 402 60 122 76 164 80 212 5 54 3 62 -20 85 -33 33 -63
33 -107 -2z"/>
<path d="M4720 8124 c-96 -44 -125 -96 -166 -289 -1 -5 -7 -28 -13 -51 -10
-37 -25 -110 -37 -174 -2 -14 -6 -34 -9 -45 -2 -11 -7 -42 -10 -70 -4 -27 -8
-61 -11 -75 -22 -133 -22 -553 0 -665 2 -11 7 -42 10 -70 21 -161 79 -375 153
-565 129 -326 308 -615 592 -955 95 -114 354 -418 361 -425 3 -3 28 -32 55
-65 28 -33 53 -62 56 -65 12 -10 237 -298 294 -375 85 -115 176 -258 251 -393
98 -174 151 -222 249 -222 84 0 175 33 233 85 52 47 72 88 92 189 24 121 83
218 185 305 16 13 90 56 164 96 75 40 158 87 185 106 78 52 180 154 233 230
l48 71 13 -49 c20 -72 24 -210 8 -268 -36 -131 -89 -208 -271 -394 -77 -79
-146 -150 -154 -158 -21 -22 -10 -23 49 -2 107 37 270 132 369 215 258 215
417 420 452 585 23 106 -11 224 -92 321 -51 60 -191 171 -249 197 -47 21 -85
19 -114 -7 -10 -9 -40 -63 -67 -119 -72 -153 -180 -258 -356 -344 -133 -64
-214 -82 -383 -82 -185 -1 -282 23 -453 109 -155 78 -250 146 -357 253 -250
250 -378 561 -435 1056 -15 127 -61 238 -127 308 -50 52 -59 55 -84 30 -37
-37 -57 -101 -69 -218 -8 -78 -14 -102 -36 -147 -34 -68 -29 -71 -138 87 -71
104 -83 123 -160 265 -151 277 -246 591 -276 915 -14 146 -3 394 24 555 13 75
61 288 71 316 8 19 6 22 -12 21 -12 -1 -43 -11 -68 -23z"/>
<path d="M8669 7451 c-52 -20 -124 -68 -182 -121 -111 -100 -109 -149 10 -317
193 -269 282 -443 358 -701 15 -52 29 -108 32 -125 23 -153 84 -256 172 -293
43 -18 129 -24 208 -13 32 5 85 11 118 14 120 12 152 17 246 40 320 79 567
264 707 528 23 42 40 77 37 77 -2 0 0 12 6 27 28 73 -20 156 -145 250 -89 68
-142 126 -160 177 -9 25 -24 66 -32 90 -29 81 -87 116 -157 94 -52 -16 -73
-58 -78 -154 -3 -52 -52 -207 -99 -311 -56 -124 -130 -209 -217 -253 -53 -26
-71 -30 -158 -35 -138 -7 -245 33 -339 127 -116 116 -167 263 -161 469 2 98 7
124 30 180 57 136 61 167 25 214 -38 50 -143 67 -221 36z"/>
<path d="M7237 7374 c-1 -1 -29 -4 -62 -8 -71 -8 -111 -13 -145 -21 -14 -3
-38 -8 -55 -11 -61 -10 -242 -77 -319 -117 -206 -107 -376 -286 -493 -522 -37
-73 -86 -206 -99 -266 -28 -134 -35 -191 -36 -299 -1 -196 34 -355 109 -489
45 -81 53 -92 138 -176 139 -139 325 -207 544 -201 56 2 104 6 107 9 3 3 -19
13 -48 22 -220 72 -392 239 -463 450 -55 164 -65 366 -26 508 86 313 342 516
744 590 43 8 134 16 202 16 68 1 136 4 152 7 70 13 126 71 138 145 8 49 17 42
40 -31 68 -211 215 -384 462 -544 56 -36 105 -66 107 -66 3 0 -6 26 -20 57
-37 83 -58 173 -69 287 -3 34 -7 77 -10 96 -2 19 -7 60 -11 90 -9 79 -38 166
-75 219 -81 120 -296 219 -538 247 -52 6 -269 13 -274 8z"/>
<path d="M10725 6844 c-111 -122 -184 -250 -229 -405 -20 -72 -29 -118 -51
-269 -2 -14 -6 -72 -10 -130 -15 -271 -24 -370 -42 -470 -9 -47 -17 -98 -18
-115 -4 -64 36 -115 91 -115 35 0 74 32 174 145 25 28 79 89 121 135 195 216
404 459 427 495 30 47 36 109 15 142 -9 13 -52 45 -97 72 -93 57 -150 110
-203 190 -39 59 -87 187 -98 261 -4 25 -9 52 -10 60 -2 8 -4 25 -4 38 -1 12
-4 22 -8 21 -5 0 -30 -25 -58 -55z"/>
<path d="M8290 6809 c0 -187 53 -351 160 -494 60 -81 255 -264 282 -265 8 0 4
21 -23 144 -52 236 -186 472 -368 651 l-51 49 0 -85z"/>
<path d="M7278 6685 c-1 -1 -26 -5 -53 -9 -55 -6 -141 -33 -196 -61 -59 -30
-129 -78 -124 -85 2 -4 32 -8 67 -9 150 -5 338 -69 438 -148 101 -81 182 -189
245 -327 37 -82 106 -283 125 -366 27 -118 103 -254 281 -502 42 -58 91 -129
109 -157 18 -28 36 -48 40 -46 4 3 10 28 14 57 3 29 9 80 12 113 28 242 -12
553 -101 789 -45 119 -149 311 -191 353 -8 8 -14 18 -14 22 0 15 -167 179
-220 217 -129 91 -243 140 -349 150 -31 3 -61 7 -68 9 -6 2 -13 2 -15 0z"/>
<path d="M4324 6128 c5 -218 6 -235 32 -373 9 -44 18 -93 21 -110 3 -16 11
-48 18 -70 8 -22 18 -58 23 -80 23 -93 122 -331 194 -465 95 -174 132 -203
263 -201 206 4 329 -69 492 -293 l52 -71 -22 -17 c-37 -30 -86 -38 -192 -31
-98 5 -198 -7 -210 -27 -9 -14 352 -282 524 -390 111 -69 313 -170 426 -214
102 -39 195 -67 195 -60 0 22 -184 307 -284 439 -74 99 -246 311 -291 359 -11
12 -49 55 -85 96 -69 80 -113 130 -145 164 -17 18 -114 127 -229 256 -17 19
-54 62 -81 95 -28 33 -53 62 -56 65 -16 14 -194 248 -251 330 -164 237 -296
507 -364 743 -10 37 -22 67 -26 67 -5 0 -6 -96 -4 -212z"/>
<path d="M8325 6068 c4 -13 15 -39 25 -58 10 -19 32 -75 49 -124 93 -265 110
-526 51 -798 -62 -288 -219 -609 -504 -1034 -25 -38 -43 -70 -41 -72 5 -5 149
103 209 158 87 78 149 146 252 273 100 124 225 352 296 542 60 159 121 372
134 465 28 207 -45 336 -296 527 -8 6 -52 41 -98 78 -65 51 -82 61 -77 43z"/>
<path d="M10075 5927 c-121 -68 -450 -187 -582 -212 -16 -3 -37 -7 -48 -9 -19
-3 -75 -11 -155 -22 -162 -22 -264 -56 -299 -99 -44 -57 -44 -135 0 -336 11
-52 25 -118 32 -146 6 -29 15 -53 19 -53 4 0 8 4 8 9 0 19 69 127 113 176 70
79 186 155 402 265 231 118 343 190 413 264 48 51 127 164 120 171 -2 2 -12
-2 -23 -8z"/>
<path d="M9538 4765 c-2 -2 -25 -5 -53 -8 -121 -14 -191 -35 -480 -145 -71
-27 -170 -59 -220 -72 -49 -12 -107 -33 -127 -47 -38 -26 -124 -114 -165 -169
-166 -223 -214 -283 -307 -375 -55 -55 -58 -61 -53 -95 16 -96 71 -96 272 0
410 197 806 446 1180 740 50 39 96 77 103 84 8 7 29 24 48 38 36 28 42 40 22
42 -31 3 -218 9 -220 7z"/>
<path d="M4760 4397 c0 -6 102 -298 125 -357 34 -86 93 -209 130 -266 104
-162 222 -213 477 -208 110 2 208 11 216 19 2 2 -7 9 -20 16 -31 16 -168 121
-232 177 -28 24 -132 122 -231 217 -160 153 -222 209 -330 304 -41 35 -135
104 -135 98z"/>
</g>
</svg>
