<svg xmlns="http://www.w3.org/2000/svg" width="49.219" height="50.581" viewBox="0 0 49.219 50.581">
  <g id="Overview_button" data-name="Overview button" transform="translate(-1117.95 -1277.329)">
    <path id="Path_2308" data-name="Path 2308" d="M21.961,35.94h-6.5l.625.625v-6.5l-.625.625h6.5l-.625-.625v6.5a.625.625,0,0,0,1.25,0v-6.5a.633.633,0,0,0-.625-.625h-6.5a.633.633,0,0,0-.625.625v6.5a.633.633,0,0,0,.625.625h6.5a.625.625,0,0,0,0-1.25Z" transform="translate(1108.111 1258.831)" fill="#707070" stroke="#707070" stroke-width="0.1"/>
    <path id="Path_2309" data-name="Path 2309" d="M21.961,64.251h-6.5l.625.625v-6.5L15.46,59h6.5l-.625-.625v6.5a.625.625,0,0,0,1.25,0v-6.5a.633.633,0,0,0-.625-.625h-6.5a.633.633,0,0,0-.625.625v6.5a.633.633,0,0,0,.625.625h6.5a.625.625,0,0,0,0-1.25Z" transform="translate(1108.111 1240.994)" fill="#707070" stroke="#707070" stroke-width="0.1"/>
    <path id="Path_2310" data-name="Path 2310" d="M21.961,92.562h-6.5l.625.625v-6.5l-.625.625h6.5l-.625-.625v6.5a.625.625,0,0,0,1.25,0v-6.5a.633.633,0,0,0-.625-.625h-6.5a.633.633,0,0,0-.625.625v6.5a.633.633,0,0,0,.625.625h6.5a.625.625,0,0,0,0-1.25Z" transform="translate(1108.111 1223.156)" fill="#707070" stroke="#707070" stroke-width="0.1"/>
    <path id="Path_2311" data-name="Path 2311" d="M45.084,30.689H55.558a.625.625,0,0,0,0-1.25H45.084a.625.625,0,0,0,0,1.25Z" transform="translate(1090.178 1258.676)" fill="#707070" stroke="#707070" stroke-width="0.1"/>
    <path id="Path_2312" data-name="Path 2312" d="M45.144,40.439h5.237a.625.625,0,0,0,0-1.25H45.144a.625.625,0,0,0,0,1.25Z" transform="translate(1089.892 1252.481)" fill="#707070" stroke="#707070" stroke-width="0.1"/>
    <path id="Path_2313" data-name="Path 2313" d="M43.087,11.393V.682A.7.7,0,0,0,42.4,0H.691A.7.7,0,0,0,0,.682V49.8a.7.7,0,0,0,.691.682H32.515a.682.682,0,0,0,0-1.364H.691l.691.682V.682l-.691.682H42.4L41.705.682V11.393a.692.692,0,0,0,1.382,0Z" transform="translate(1118 1277.379)" fill="#707070" stroke="#707070" stroke-width="0.1"/>
    <path id="Path_2314" data-name="Path 2314" d="M108.2,111.492l-12.048-11.6c-.58-.558-1.465.325-.884.884l12.049,11.6c.58.558,1.465-.325.884-.884Z" transform="translate(1058.728 1215.134)" fill="#707070" stroke="#707070" stroke-width="0.1"/>
    <g id="Group_104" data-name="Group 104" transform="translate(1141.172 1302.561)">
      <path id="Path_2315" data-name="Path 2315" d="M72.929,74.794V68.759a.625.625,0,0,0-1.25,0v6.034a.625.625,0,0,0,1.25,0Z" transform="translate(-68.68 -68.154)" fill="#707070" stroke="#707070" stroke-width="0.1"/>
      <path id="Path_2316" data-name="Path 2316" d="M69.325,77.144H63.29a.625.625,0,0,0,0,1.25h6.035a.625.625,0,0,0,0-1.25Z" transform="translate(-62.685 -74.147)" fill="#707070" stroke="#707070" stroke-width="0.1"/>
    </g>
    <path id="Path_2317" data-name="Path 2317" d="M46.994,64.976a8.889,8.889,0,0,1,.682-12.31A8.782,8.782,0,0,1,61.43,63.1a8.91,8.91,0,0,1-11.177,4.2c-.757-.276-1.084.934-.333,1.206C57.8,71.37,65.942,63.829,63,55.742a10.027,10.027,0,1,0-16.89,10.12c.519.616,1.4-.272.884-.884Z" transform="translate(1091.335 1247.185)" fill="#707070" stroke="#707070" stroke-width="0.1"/>
  </g>
</svg>
