<svg xmlns="http://www.w3.org/2000/svg" width="62.837" height="50.48" viewBox="0 0 62.837 50.48">
  <g id="Guest_Management_button" data-name="Guest Management button" transform="translate(-5102.46 4128)">
    <g id="Artwork_37" data-name="Artwork 37" transform="translate(5102.46 -4128)">
      <g id="Group_109" data-name="Group 109" transform="translate(0 0)">
        <path id="Path_2328" data-name="Path 2328" d="M18.331,35.68a8.991,8.991,0,0,1,4.462-16.663c1.078-.034,1.083-1.713,0-1.679a10.608,10.608,0,0,0-5.309,19.794c.92.573,1.764-.879.848-1.45Z" transform="translate(-6.728 -9.574)" fill="#707070"/>
        <path id="Path_2329" data-name="Path 2329" d="M55.317,22.136C46.481,21.9,41.607,11.089,48.066,4.63s17.267-1.584,17.506,7.251a.84.84,0,0,0,1.679,0C66.974,1.6,54.386-4.065,46.879,3.442s-1.846,20.1,8.439,20.373A.84.84,0,0,0,55.317,22.136Z" transform="translate(-23.986 0)" fill="#707070"/>
        <g id="Group_108" data-name="Group 108" transform="translate(13.976 22.094)">
          <path id="Path_2330" data-name="Path 2330" d="M31.842,58.97c-1.1,3.589-.423,8.085-.423,11.774V81.891a.84.84,0,0,0,1.679,0V64.176a15.884,15.884,0,0,1,.363-4.759c.318-1.035-1.3-1.478-1.619-.448Z" transform="translate(-31.211 -54.333)" fill="#707070"/>
          <path id="Path_2331" data-name="Path 2331" d="M60.543,49.441h-14.3c-4.86,0-11.169-1.162-13.533,4.334-.422.982,1.024,1.839,1.45.848,1.229-2.857,3.559-3.5,6.334-3.5H60.543a.84.84,0,0,0,0-1.679Z" transform="translate(-31.999 -49.339)" fill="#707070"/>
        </g>
        <path id="Path_2332" data-name="Path 2332" d="M11.18,57.854c-2.628,0-5.926-.522-8.266.934C.366,60.371,0,62.921,0,65.63V81.549a.84.84,0,0,0,1.679,0V67.557c0-2.075-.391-4.67,1.03-6.367,1.957-2.338,5.742-1.657,8.473-1.657a.84.84,0,0,0,0-1.679Z" transform="translate(0 -31.897)" fill="#707070"/>
        <path id="Path_2333" data-name="Path 2333" d="M84.856,68.314l-6.6-6.614-.594,1.433,5.067-.666c1.217-.16,3.555.024,4.623-.667,1.016-.657,1.6-2.854,2.128-3.88L91.9,53.174H90.45l2.1,4.416c.518,1.086,1.122,3.493,2.133,4.254.974.737,3.325.635,4.468.816l5.047.8-.37-1.4-3.708,3.517c-.875.831-2.914,2.077-3.289,3.285-.358,1.16.443,3.261.627,4.416l.829,5.263,1.233-.948-8.212-4.456c-.95-.516-1.8.933-.848,1.45l8.212,4.461A.851.851,0,0,0,99.91,78.1l-.727-4.616-.5-3.174a4.072,4.072,0,0,0-.165-1.046c-.185-.358.188-.532-.159.016-.522.824.793-.461.94-.6l2.331-2.211,3.39-3.216a.845.845,0,0,0-.37-1.4l-4.615-.735-3.173-.505c-.288-.045-1.711-.433-1.184-.045s-.25-.833-.385-1.115l-1.382-2.9L91.9,52.331a.845.845,0,0,0-1.45,0l-2.125,4.162-1.461,2.861c-.086.169-.892,1.84-.309,1.082.366-.476.407-.069-.029-.146a4.2,4.2,0,0,0-1.05.138l-3.185.419-4.632.607a.852.852,0,0,0-.594,1.433l6.6,6.614a.84.84,0,0,0,1.188-1.188Z" transform="translate(-42.42 -28.671)" fill="#707070"/>
        <path id="Path_2334" data-name="Path 2334" d="M96.5,99.177l-8.329,4.236c-.964.49-.115,1.939.848,1.45l8.329-4.236C98.309,100.137,97.46,98.688,96.5,99.177Z" transform="translate(-48.453 -54.711)" fill="#707070"/>
      </g>
    </g>
  </g>
</svg>
