<svg xmlns="http://www.w3.org/2000/svg" xmlns:xlink="http://www.w3.org/1999/xlink" width="184.206" height="54.579" viewBox="0 0 184.206 54.579">
  <defs>
    <linearGradient id="linear-gradient" x1="0.915" y1="6.614" x2="-0.382" y2="5.945" gradientUnits="objectBoundingBox">
      <stop offset="0" stop-color="#00a0ff"/>
      <stop offset="0.01" stop-color="#00a1ff"/>
      <stop offset="0.26" stop-color="#00beff"/>
      <stop offset="0.51" stop-color="#00d2ff"/>
      <stop offset="0.76" stop-color="#00dfff"/>
      <stop offset="1" stop-color="#00e3ff"/>
    </linearGradient>
    <linearGradient id="linear-gradient-2" x1="1.077" y1="17.089" x2="-1.306" y2="17.089" gradientUnits="objectBoundingBox">
      <stop offset="0" stop-color="#ffe000"/>
      <stop offset="0.41" stop-color="#ffbd00"/>
      <stop offset="0.78" stop-color="orange"/>
      <stop offset="1" stop-color="#ff9c00"/>
    </linearGradient>
    <linearGradient id="linear-gradient-3" x1="0.863" y1="10.855" x2="-0.502" y2="9.087" gradientUnits="objectBoundingBox">
      <stop offset="0" stop-color="#ff3a44"/>
      <stop offset="1" stop-color="#c31162"/>
    </linearGradient>
    <linearGradient id="linear-gradient-4" x1="-0.188" y1="13.576" x2="0.421" y2="12.786" gradientUnits="objectBoundingBox">
      <stop offset="0" stop-color="#32a071"/>
      <stop offset="0.07" stop-color="#2da771"/>
      <stop offset="0.48" stop-color="#15cf74"/>
      <stop offset="0.8" stop-color="#06e775"/>
      <stop offset="1" stop-color="#00f076"/>
    </linearGradient>
  </defs>
  <g id="Group_1010" data-name="Group 1010" transform="translate(-1144.533 -4640.335)">
    <rect id="Rectangle_849" data-name="Rectangle 849" width="184.206" height="54.579" rx="7" transform="translate(1144.533 4640.334)"/>
    <path id="Path_3800" data-name="Path 3800" d="M187.383,11.092a5.731,5.731,0,0,1,5.731,5.731V57.757a5.731,5.731,0,0,1-5.731,5.731H16.822a5.731,5.731,0,0,1-5.731-5.731V16.822a5.731,5.731,0,0,1,5.731-5.731H187.383m0-1.092H16.822A6.822,6.822,0,0,0,10,16.822V57.757a6.822,6.822,0,0,0,6.822,6.822H187.383a6.822,6.822,0,0,0,6.822-6.822V16.822A6.822,6.822,0,0,0,187.383,10Z" transform="translate(1134.533 4630.334)" fill="#a6a6a6"/>
    <path id="Path_3801" data-name="Path 3801" d="M59.632,21.472A3.711,3.711,0,0,1,58.609,24.2a3.957,3.957,0,0,1-3,1.2,4.093,4.093,0,0,1-3.016-1.228A4.277,4.277,0,0,1,57.285,17.2a3.466,3.466,0,0,1,1.283.914l-.723.723a2.729,2.729,0,0,0-2.238-.982A3.275,3.275,0,1,0,57.9,23.491a2.62,2.62,0,0,0,.682-1.665H55.607v-.982h3.971A5.117,5.117,0,0,1,59.632,21.472Z" transform="translate(1149.605 4632.835)" fill="#fff" stroke="#fff" stroke-miterlimit="10" stroke-width="0.2"/>
    <path id="Path_3802" data-name="Path 3802" d="M63.268,18.01H59.584V20.6h3.357v.982H59.584v2.593h3.684v1.01H58.52V17h4.748Z" transform="translate(1152.218 4632.886)" fill="#fff" stroke="#fff" stroke-miterlimit="10" stroke-width="0.2"/>
    <path id="Path_3803" data-name="Path 3803" d="M66.173,25.187H65.122V18.01H62.83V17h5.69v1.01H66.173Z" transform="translate(1153.789 4632.886)" fill="#fff" stroke="#fff" stroke-miterlimit="10" stroke-width="0.2"/>
    <path id="Path_3804" data-name="Path 3804" d="M69.94,25.187V17h1.051v8.187Z" transform="translate(1156.38 4632.886)" fill="#fff" stroke="#fff" stroke-miterlimit="10" stroke-width="0.2"/>
    <path id="Path_3805" data-name="Path 3805" d="M75.023,25.187H73.972V18.01H71.68V17H77.3v1.01H75.023Z" transform="translate(1157.015 4632.886)" fill="#fff" stroke="#fff" stroke-miterlimit="10" stroke-width="0.2"/>
    <path id="Path_3806" data-name="Path 3806" d="M85.535,24.17a4.244,4.244,0,0,1-6,0,4.421,4.421,0,0,1,0-6.058,4,4,0,0,1,3-1.242,4.093,4.093,0,0,1,3,1.242,4.189,4.189,0,0,1,1.2,3.029A4.093,4.093,0,0,1,85.535,24.17Zm-5.226-.682a3.125,3.125,0,0,0,4.448,0,3.466,3.466,0,0,0,0-4.694,3.125,3.125,0,0,0-4.448,0,3.466,3.466,0,0,0,0,4.694Z" transform="translate(1159.438 4632.838)" fill="#fff" stroke="#fff" stroke-miterlimit="10" stroke-width="0.2"/>
    <path id="Path_3807" data-name="Path 3807" d="M85.58,25.187V17h1.269l3.984,6.372h0V17h1.051v8.187H90.792l-4.162-6.672h0v6.672Z" transform="translate(1162.081 4632.886)" fill="#fff" stroke="#fff" stroke-miterlimit="10" stroke-width="0.2"/>
    <path id="Path_3808" data-name="Path 3808" d="M88.078,33.465a5.813,5.813,0,1,0,5.826,5.8,5.717,5.717,0,0,0-5.826-5.8Zm0,9.319a3.52,3.52,0,1,1,3.275-3.52,3.357,3.357,0,0,1-3.275,3.52ZM75.361,33.465a5.813,5.813,0,1,0,5.826,5.8,5.717,5.717,0,0,0-5.826-5.8Zm0,9.319a3.52,3.52,0,1,1,3.275-3.52,3.357,3.357,0,0,1-3.275,3.52ZM60.243,35.252v2.456h5.895a5.144,5.144,0,0,1-1.364,3.1,6.031,6.031,0,0,1-4.557,1.8,6.55,6.55,0,0,1,0-13.1,6.331,6.331,0,0,1,4.476,1.76l1.733-1.733a8.6,8.6,0,0,0-6.181-2.483,9.019,9.019,0,1,0,0,18.025,8.282,8.282,0,0,0,6.29-2.524,8.187,8.187,0,0,0,2.129-5.772,8.556,8.556,0,0,0-.123-1.528Zm61.825,1.91a5.361,5.361,0,0,0-10.425,2.1A5.772,5.772,0,0,0,122.232,42.5l-1.979-1.364a3.288,3.288,0,0,1-2.852,1.6,2.934,2.934,0,0,1-2.811-1.76l7.764-3.207ZM114.154,39.1a3.193,3.193,0,0,1,3.043-3.4,2.238,2.238,0,0,1,2.142,1.242Zm-6.3,5.622H110.4V27.666H107.85Zm-4.175-9.961h-.1a4.012,4.012,0,0,0-3.056-1.364,5.813,5.813,0,0,0,0,11.612,3.93,3.93,0,0,0,3.056-1.364h.1v.832c0,2.224-1.187,3.411-3.1,3.411a3.22,3.22,0,0,1-2.934-2.06l-2.21.914a5.458,5.458,0,0,0,5.144,3.439c2.988,0,5.458-1.76,5.458-6.045V33.806h-2.361Zm-2.934,8.023a3.52,3.52,0,0,1,0-7.027,3.261,3.261,0,0,1,3.111,3.507,3.247,3.247,0,0,1-3.111,3.52Zm33.28-15.119h-6.113V44.722h2.552V38.254h3.561a5.308,5.308,0,1,0,0-10.588Zm0,8.187h-3.561V30.04h3.616a2.92,2.92,0,1,1,0,5.84Zm15.746-2.442a4.762,4.762,0,0,0-4.544,2.606l2.251.941a2.429,2.429,0,0,1,2.333-1.242,2.456,2.456,0,0,1,2.729,2.2v.164a5.7,5.7,0,0,0-2.661-.655c-2.429,0-4.912,1.364-4.912,3.848a3.943,3.943,0,0,0,4.244,3.752,3.616,3.616,0,0,0,3.247-1.665h.082v1.364h2.456V38.159c0-2.988-2.265-4.721-5.171-4.721Zm-.314,9.347c-.832,0-1.992-.423-1.992-1.446,0-1.364,1.446-1.828,2.729-1.828a4.53,4.53,0,0,1,2.32.573,3.084,3.084,0,0,1-3,2.729Zm14.491-8.951-2.92,7.4h-.082l-3.029-7.4h-2.729l4.544,10.343-2.593,5.744H159.8l6.986-16.087ZM141.021,44.722h2.538V27.666h-2.538Z" transform="translate(1149.431 4636.547)" fill="#fff"/>
    <path id="Path_3809" data-name="Path 3809" d="M20.613,17.566a2.729,2.729,0,0,0-.641,1.91V49.658a2.647,2.647,0,0,0,.641,1.91l.1.109L37.614,34.772v-.409L20.708,17.47Z" transform="translate(1138.166 4633.057)" fill="url(#linear-gradient)"/>
    <path id="Path_3810" data-name="Path 3810" d="M38.494,37.4,32.9,31.765v-.409l5.594-5.635.123.082,6.7,3.793c1.91,1.078,1.91,2.852,0,3.943l-6.672,3.793Z" transform="translate(1142.88 4636.064)" fill="url(#linear-gradient-2)"/>
    <path id="Path_3811" data-name="Path 3811" d="M43.2,35.758,37.441,30l-17,17a2.21,2.21,0,0,0,2.824.1L43.2,35.758" transform="translate(1138.338 4637.625)" fill="url(#linear-gradient-3)"/>
    <path id="Path_3812" data-name="Path 3812" d="M43.2,28.932,23.264,17.607a2.2,2.2,0,0,0-2.824.082l17,17Z" transform="translate(1138.338 4632.934)" fill="url(#linear-gradient-4)"/>
    <path id="Path_3813" data-name="Path 3813" d="M43.036,34.13,23.264,45.387a2.265,2.265,0,0,1-2.729,0h0l-.1.1h0l.1.109h0a2.265,2.265,0,0,0,2.729,0L43.2,34.253Z" transform="translate(1138.338 4639.129)" opacity="0.2"/>
    <path id="Path_3814" data-name="Path 3814" d="M20.6,42.834A2.729,2.729,0,0,1,20,40.91v.2a2.647,2.647,0,0,0,.641,1.91l.1-.1Z" transform="translate(1138.176 4641.601)" opacity="0.12"/>
    <path id="Path_3815" data-name="Path 3815" d="M43.822,31.774,37,35.635l.123.123,6.7-3.793A2.388,2.388,0,0,0,45.269,30h0a2.538,2.538,0,0,1-1.446,1.774Z" transform="translate(1144.374 4637.625)" opacity="0.12"/>
    <path id="Path_3816" data-name="Path 3816" d="M23.436,17.8,50.03,32.914a2.538,2.538,0,0,1,1.446,1.774h0a2.388,2.388,0,0,0-1.446-1.965L23.436,17.6c-1.9-1.092-3.466-.191-3.466,1.992v.2C20.011,17.618,21.539,16.717,23.436,17.8Z" transform="translate(1138.167 4632.937)" fill="#fff" opacity="0.25"/>
  </g>
</svg>
