<svg xmlns="http://www.w3.org/2000/svg" width="25.423" height="25.423" viewBox="0 0 25.423 25.423">
  <g id="Call_icon" data-name="Call icon" transform="translate(-1440.63 -430.634)">
    <path id="ic_call_24px" d="M8.113,14A21.4,21.4,0,0,0,17.42,23.31L20.527,20.2a1.4,1.4,0,0,1,1.441-.339,16.111,16.111,0,0,0,5.042.805,1.417,1.417,0,0,1,1.412,1.412V27.01a1.417,1.417,0,0,1-1.412,1.412A24.008,24.008,0,0,1,3,4.412,1.417,1.417,0,0,1,4.412,3H9.356a1.417,1.417,0,0,1,1.412,1.412,16.045,16.045,0,0,0,.805,5.042A1.417,1.417,0,0,1,11.22,10.9Z" transform="translate(1437.63 427.634)" fill="#707070"/>
  </g>
</svg>
