<svg id="Contact" xmlns="http://www.w3.org/2000/svg" width="28.855" height="29.855" viewBox="0 0 28.855 29.855">
  <g id="Group_1806" data-name="Group 1806">
    <path id="Path_7365" data-name="Path 7365" d="M861.855,740.353a4.462,4.462,0,0,1-4.421,4.5H837.421a4.462,4.462,0,0,1-4.421-4.5V719.5a4.462,4.462,0,0,1,4.421-4.5h20.013a4.462,4.462,0,0,1,4.421,4.5Zm-1.4-20.851a3.053,3.053,0,0,0-3.025-3.08H837.421a3.053,3.053,0,0,0-3.025,3.08v20.851a3.053,3.053,0,0,0,3.025,3.08h20.013a3.053,3.053,0,0,0,3.025-3.08Z" transform="translate(-833 -715)"/>
  </g>
  <g id="Group_1809" data-name="Group 1809" transform="translate(11.802 4.997)">
    <g id="Group_1807" data-name="Group 1807" transform="translate(0)">
      <path id="Path_7366" data-name="Path 7366" d="M861.615,732.559c-1.765,0-3.255-2.448-3.255-3.986a3.254,3.254,0,0,1,6.492,0C864.851,730.111,863.37,732.559,861.615,732.559Zm-.009-5.592a1.861,1.861,0,0,0-1.85,1.607c0,1.03,1.112,2.564,1.859,2.564s1.841-1.534,1.841-2.564A1.861,1.861,0,0,0,861.605,726.967Z" transform="translate(-858.359 -725.545)"/>
    </g>
  </g>
  <g id="Group_1810" data-name="Group 1810" transform="translate(9.342 20.378)">
    <path id="Path_7368" data-name="Path 7368" d="M863.545,759.422h-9.774a.711.711,0,0,1,0-1.422h9.774a.711.711,0,0,1,0,1.422Z" transform="translate(-853.073 -758)"/>
  </g>
  <g id="Group_1813" data-name="Group 1813" transform="translate(9.225 11.914)">
    <path id="Path_7368-2" data-name="Path 7368" d="M864.241,763.422s-.852-4.706-5.426-4.711-5.744,4.711-5.744,4.711c-.385,0-.13-5.885,5.744-5.885C864.228,757.519,864.626,763.422,864.241,763.422Z" transform="translate(-852.954 -757.536)"/>
  </g>
  <g id="Group_1811" data-name="Group 1811" transform="translate(9.342 23.695)">
    <path id="Path_7369" data-name="Path 7369" d="M863.545,766.422h-9.774a.711.711,0,0,1,0-1.422h9.774a.711.711,0,0,1,0,1.422Z" transform="translate(-853.073 -765)"/>
  </g>
</svg>
