<svg xmlns="http://www.w3.org/2000/svg" width="28.855" height="22.603" viewBox="0 0 28.855 22.603">
  <g id="Mail" transform="translate(0 0)">
    <g id="Group_1803" data-name="Group 1803" transform="translate(0 2.553)">
      <g id="Group_1801" data-name="Group 1801">
        <path id="Path_7362" data-name="Path 7362" d="M857.684,808.742H837.655a4.542,4.542,0,0,1-4.655-4.4V793.259a4.522,4.522,0,0,1,4.425-4.566.66.66,0,0,1,.638.711.642.642,0,0,1-.614.711,3.125,3.125,0,0,0-3.075,3.144v11.084a3.172,3.172,0,0,0,3.281,2.977h20.029a2.744,2.744,0,0,0,2.8-2.977V793.259a3.005,3.005,0,0,0-2.919-3.144.741.741,0,0,1-.736-.711.764.764,0,0,1,.76-.711,4.353,4.353,0,0,1,4.268,4.566v11.084A4.125,4.125,0,0,1,857.684,808.742Z" transform="translate(-833 -788.693)"/>
      </g>
      <g id="Group_1802" data-name="Group 1802" transform="translate(0.94 2.409)">
        <path id="Path_7363" data-name="Path 7363" d="M848.767,802.912a4.278,4.278,0,0,1-2.138-.571l-11.253-7.25a.726.726,0,0,1-.22-.98.675.675,0,0,1,.947-.227l11.224,7.233a2.959,2.959,0,0,0,2.958-.035l10.945-7.194a.674.674,0,0,1,.949.219.725.725,0,0,1-.212.981L850.994,802.3A4.369,4.369,0,0,1,848.767,802.912Z" transform="translate(-835.053 -793.777)"/>
      </g>
    </g>
    <g id="Group_1804" data-name="Group 1804" transform="translate(9.781)">
      <path id="Path_7364" data-name="Path 7364" d="M860.182,786.069l.124-.565h1.3l-.748,3.65a2.93,2.93,0,0,0-.069.458.272.272,0,0,0,.057.183.172.172,0,0,0,.135.066,1.207,1.207,0,0,0,.687-.359,3.1,3.1,0,0,0,.733-.977,3.073,3.073,0,0,0,.088-2.5,2.677,2.677,0,0,0-.647-.937,2.986,2.986,0,0,0-1.046-.621,4.147,4.147,0,0,0-1.41-.224,4.764,4.764,0,0,0-1.471.217,3.674,3.674,0,0,0-1.176.621,3.457,3.457,0,0,0-.846,1,4.422,4.422,0,0,0-.457,1.151,5.26,5.26,0,0,0-.158,1.288,3.735,3.735,0,0,0,.338,1.6,3.22,3.22,0,0,0,.978,1.217,3.962,3.962,0,0,0,1.552.7,6.3,6.3,0,0,0,2.056.084,4.75,4.75,0,0,0,1.543-.427,3.059,3.059,0,0,0,1.07-.886h1.047a3.6,3.6,0,0,1-.666.972,3.8,3.8,0,0,1-.961.72,4.916,4.916,0,0,1-1.236.445,6.855,6.855,0,0,1-1.49.153,6.774,6.774,0,0,1-2.18-.328,4.438,4.438,0,0,1-1.631-.947,4.019,4.019,0,0,1-1-1.476,5.1,5.1,0,0,1-.34-1.9,5.764,5.764,0,0,1,.35-2.026,4.758,4.758,0,0,1,1.006-1.637,4.589,4.589,0,0,1,1.6-1.087,5.412,5.412,0,0,1,2.088-.392,5,5,0,0,1,1.715.282,3.773,3.773,0,0,1,1.336.812,3.535,3.535,0,0,1,.849,1.255,4.251,4.251,0,0,1,.292,1.6,3.911,3.911,0,0,1-.236,1.336,3.818,3.818,0,0,1-.677,1.176,3.3,3.3,0,0,1-1.036.825,2.788,2.788,0,0,1-1.283.3,1.159,1.159,0,0,1-.62-.14.69.69,0,0,1-.295-.445,1.891,1.891,0,0,1-.984.552,1.777,1.777,0,0,1-1.078-.107,1.813,1.813,0,0,1-.844-.746,2.426,2.426,0,0,1-.322-1.293,3.969,3.969,0,0,1,.332-1.573,3.247,3.247,0,0,1,.945-1.268,2.15,2.15,0,0,1,1.385-.493A1.405,1.405,0,0,1,860.182,786.069Zm-2.691,2.637a1.53,1.53,0,0,0,.246.937.769.769,0,0,0,.644.326,1.08,1.08,0,0,0,.815-.382,2.494,2.494,0,0,0,.533-.965,3.759,3.759,0,0,0,.182-1.127,1.788,1.788,0,0,0-.061-.486,1.19,1.19,0,0,0-.182-.38.806.806,0,0,0-.291-.247.857.857,0,0,0-.386-.084,1.076,1.076,0,0,0-.78.349,2.3,2.3,0,0,0-.534.906A3.591,3.591,0,0,0,857.491,788.706Z" transform="translate(-854.356 -783.305)"/>
    </g>
  </g>
</svg>
