<svg xmlns="http://www.w3.org/2000/svg" width="56.759" height="50.158" viewBox="0 0 56.759 50.158">
  <g id="Invitation_button" data-name="Invitation button" transform="translate(-5023.46 4128)">
    <g id="Artwork_35" data-name="Artwork 35" transform="translate(5023.46 -4128)">
      <g id="Group_110" data-name="Group 110" transform="translate(0 0)">
        <path id="Path_2335" data-name="Path 2335" d="M170.607,768.495H179a.794.794,0,0,0,0-1.587h-8.391a.794.794,0,0,0,0,1.587Z" transform="translate(-146.639 -736.055)" fill="#707070"/>
        <path id="Path_2336" data-name="Path 2336" d="M190.069,768.332l22.814,16.429c.83.6,1.623-.778.8-1.37l-22.814-16.429C190.039,766.364,189.247,767.739,190.069,768.332Z" transform="translate(-158.11 -736.001)" fill="#707070"/>
        <path id="Path_2337" data-name="Path 2337" d="M157.144,717.839V707.46l-.793.793h19.981l-.793-.793v13.277l.793-.794H159.42a.794.794,0,0,0,0,1.587h16.913a.8.8,0,0,0,.793-.793V707.46a.8.8,0,0,0-.793-.793H156.351a.8.8,0,0,0-.793.793v10.379a.794.794,0,0,0,1.586,0Z" transform="translate(-138.4 -701.306)" fill="#707070"/>
        <path id="Path_2338" data-name="Path 2338" d="M163.64,750.711h14.588a.794.794,0,0,0,0-1.587H163.64a.794.794,0,0,0,0,1.587Z" transform="translate(-142.62 -725.797)" fill="#707070"/>
        <path id="Path_2339" data-name="Path 2339" d="M140.782,715.392v-20.6l-.793.794h33.825l-.793-.794v21.746a.794.794,0,0,0,1.586,0V694.793a.8.8,0,0,0-.793-.793H139.989a.8.8,0,0,0-.793.793v20.6a.794.794,0,0,0,1.586,0Z" transform="translate(-128.96 -694)" fill="#707070"/>
        <path id="Path_2340" data-name="Path 2340" d="M213.712,727.576l-23.649,16.67c-.828.583-.036,1.96.8,1.37l23.649-16.67c.828-.583.036-1.96-.8-1.37Z" transform="translate(-158.105 -713.284)" fill="#707070"/>
        <path id="Path_2341" data-name="Path 2341" d="M139.441,743.458l-23.175-17.239c-.82-.61-1.611.767-.8,1.37l23.175,17.238c.82.61,1.611-.767.8-1.37Z" transform="translate(-115.072 -712.497)" fill="#707070"/>
        <path id="Path_2342" data-name="Path 2342" d="M116.586,745.243V728A.794.794,0,0,0,115,728v17.244a.794.794,0,0,0,1.586,0Z" transform="translate(-115 -713.168)" fill="#707070"/>
        <path id="Path_2343" data-name="Path 2343" d="M170.15,728v34.489l.793-.793H115.828a.794.794,0,0,0,0,1.587h55.115a.8.8,0,0,0,.793-.793V728a.794.794,0,0,0-1.586,0Z" transform="translate(-115.035 -713.168)" fill="#707070"/>
        <path id="Path_2344" data-name="Path 2344" d="M116.273,785.991l23.175-17.672c.8-.611.012-1.989-.8-1.37L115.472,784.62c-.8.611-.012,1.989.8,1.37Z" transform="translate(-115.08 -735.988)" fill="#707070"/>
      </g>
    </g>
  </g>
</svg>
