<svg xmlns="http://www.w3.org/2000/svg" width="47.479" height="50.158" viewBox="0 0 47.479 50.158">
  <g id="Registration_icon" data-name="Registration icon" transform="translate(-4953 4128)">
    <g id="Group_917" data-name="Group 917" transform="translate(4953 -4128)">
      <g id="Group_916" data-name="Group 916" transform="translate(0 0)">
        <path id="Path_3751" data-name="Path 3751" d="M44.692,35.185V.574A.7.7,0,0,0,44.017-.1c-12.673.035-25.31.035-37.983.035H.674A.7.7,0,0,0,0,.61V49.348a.7.7,0,0,0,.674.674H35.462a.675.675,0,0,0,0-1.349H.674l.674.674V.61a6.051,6.051,0,0,0-.674.674H44.017L43.343.61V35.22a.675.675,0,0,0,1.349-.035Z" transform="translate(0 0.1)" fill="#707070"/>
      </g>
    </g>
    <g id="Group_930" data-name="Group 930" transform="translate(4981.038 -4095.886)">
      <g id="Group_919" data-name="Group 919" transform="translate(1.144 3.348)">
        <g id="Group_918" data-name="Group 918">
          <path id="Path_3752" data-name="Path 3752" d="M82.417,100.936c4.792,4.473,9.62,8.91,14.412,13.383.639.568,1.562-.355.958-.958-4.792-4.473-9.62-8.91-14.412-13.383-.639-.568-1.6.355-.958.958Z" transform="translate(-82.206 -99.8)" fill="#707070"/>
        </g>
      </g>
      <g id="Group_921" data-name="Group 921" transform="translate(3.38 0.49)">
        <g id="Group_920" data-name="Group 920">
          <path id="Path_3753" data-name="Path 3753" d="M88.717,92.868q7.348,6.656,14.7,13.276c.639.568,1.562-.355.958-.958q-7.348-6.656-14.7-13.276c-.639-.532-1.6.39-.958.958Z" transform="translate(-88.506 -91.75)" fill="#707070"/>
        </g>
      </g>
      <g id="Group_923" data-name="Group 923" transform="translate(15.593 13.751)">
        <g id="Group_922" data-name="Group 922">
          <path id="Path_3754" data-name="Path 3754" d="M125.6,129.317c-.852.958-1.7,1.952-2.52,2.911-.568.639.39,1.6.958.958.852-.958,1.7-1.952,2.52-2.911.568-.639-.39-1.6-.958-.958Z" transform="translate(-122.911 -129.106)" fill="#707070"/>
        </g>
      </g>
      <g id="Group_925" data-name="Group 925" transform="translate(13.764 12.189)">
        <g id="Group_924" data-name="Group 924">
          <path id="Path_3755" data-name="Path 3755" d="M120.507,124.917c-.852.923-1.7,1.81-2.556,2.733a.678.678,0,0,0,.958.958c.852-.923,1.7-1.81,2.556-2.733.568-.639-.355-1.6-.958-.958Z" transform="translate(-117.759 -124.706)" fill="#707070"/>
        </g>
      </g>
      <g id="Group_927" data-name="Group 927" transform="translate(0 0.01)">
        <g id="Group_926" data-name="Group 926">
          <path id="Path_3756" data-name="Path 3756" d="M79.026,91.214c.39,1.136.781,2.236,1.136,3.372.284.816,1.562.461,1.278-.355-.39-1.136-.781-2.236-1.136-3.372-.284-.816-1.562-.461-1.278.355Z" transform="translate(-78.985 -90.396)" fill="#707070"/>
        </g>
      </g>
      <g id="Group_929" data-name="Group 929" transform="translate(0.014)">
        <g id="Group_928" data-name="Group 928">
          <path id="Path_3757" data-name="Path 3757" d="M79.512,91.658l3.408.532c.852.142,1.207-1.171.355-1.278l-3.408-.532c-.852-.142-1.207,1.136-.355,1.278Z" transform="translate(-79.024 -90.369)" fill="#707070"/>
        </g>
      </g>
    </g>
    <g id="Group_935" data-name="Group 935" transform="translate(4957.579 -4123.995)">
      <g id="Group_932" data-name="Group 932" transform="translate(3.012)">
        <g id="Group_931" data-name="Group 931">
          <path id="Path_3758" data-name="Path 3758" d="M25.65,18.4A2.953,2.953,0,1,1,28.6,15.45c.035.852,1.384.852,1.349,0-.213-3.656-4.579-5.751-7.313-3.017s-.639,7.1,3.017,7.313c.852.035.852-1.278,0-1.349Z" transform="translate(-21.384 -11.184)" fill="#707070"/>
        </g>
      </g>
      <g id="Group_934" data-name="Group 934" transform="translate(0 7.184)">
        <g id="Group_933" data-name="Group 933">
          <path id="Path_3759" data-name="Path 3759" d="M14.177,42.1V37.7c0-1.917-.426-4.65,2.236-4.9,1.455-.142,3.017,0,4.473,0,1.917,0,5.076-.532,5.325,2.2.071.852,1.384.852,1.349,0-.213-2.7-2.272-3.514-4.65-3.514-2.13,0-4.331-.142-6.461,0-2.591.177-3.55,2.13-3.55,4.437v6.212a.639.639,0,1,0,1.278-.035Z" transform="translate(-12.898 -31.422)" fill="#707070"/>
        </g>
      </g>
    </g>
    <g id="Group_940" data-name="Group 940" transform="translate(4957.579 -4100.617)">
      <g id="Group_937" data-name="Group 937" transform="translate(3.012)">
        <g id="Group_936" data-name="Group 936">
          <path id="Path_3760" data-name="Path 3760" d="M25.65,84.267A2.953,2.953,0,1,1,28.6,81.321c.035.852,1.384.852,1.349,0-.213-3.656-4.579-5.786-7.313-3.017a4.321,4.321,0,0,0,3.017,7.313.675.675,0,0,0,0-1.349Z" transform="translate(-21.384 -77.04)" fill="#707070"/>
        </g>
      </g>
      <g id="Group_939" data-name="Group 939" transform="translate(0 7.2)">
        <g id="Group_938" data-name="Group 938">
          <path id="Path_3761" data-name="Path 3761" d="M14.177,108v-4.4c0-1.917-.426-4.65,2.236-4.9,1.455-.142,3.017,0,4.473,0,1.917,0,5.076-.532,5.325,2.2.071.852,1.384.852,1.349,0-.213-2.7-2.272-3.514-4.65-3.514-2.13,0-4.331-.142-6.461,0-2.591.177-3.55,2.13-3.55,4.437v6.212c-.035.816,1.278.816,1.278-.035Z" transform="translate(-12.898 -97.322)" fill="#707070"/>
        </g>
      </g>
    </g>
    <g id="Group_942" data-name="Group 942" transform="translate(4978.241 -4115.998)">
      <g id="Group_941" data-name="Group 941">
        <path id="Path_3762" data-name="Path 3762" d="M71.317,34.843c1.491,1.42,2.982,2.8,4.473,4.224a.678.678,0,0,0,.958-.958c-1.491-1.42-2.982-2.8-4.473-4.224-.639-.568-1.6.39-.958.958Z" transform="translate(-71.106 -33.711)" fill="#707070"/>
      </g>
    </g>
    <g id="Group_944" data-name="Group 944" transform="translate(4982.782 -4120.264)">
      <g id="Group_943" data-name="Group 943">
        <path id="Path_3763" data-name="Path 3763" d="M85,31.316c2.2-2.8,4.437-5.644,6.638-8.448.532-.674-.426-1.6-.958-.958-2.2,2.8-4.437,5.644-6.638,8.448-.5.674.426,1.633.958.958Z" transform="translate(-83.899 -21.694)" fill="#707070"/>
      </g>
    </g>
  </g>
</svg>
