<svg xmlns="http://www.w3.org/2000/svg" width="184.206" height="61.574" viewBox="0 0 184.206 61.574">
  <g id="Download_on_the_App_Store_Badge_US-UK_RGB_blk_092917" transform="translate(0 0)">
    <g id="Group_1008" data-name="Group 1008" transform="translate(0 0)">
      <g id="Group_1006" data-name="Group 1006">
        <path id="Path_3777" data-name="Path 3777" d="M169.537,0H14.677c-.564,0-1.122,0-1.685,0-.471,0-.939.012-1.415.02A20.342,20.342,0,0,0,8.493.295a10.26,10.26,0,0,0-2.926.965A9.91,9.91,0,0,0,3.075,3.074a9.634,9.634,0,0,0-1.814,2.5A10.162,10.162,0,0,0,.3,8.5a20,20,0,0,0-.276,3.082C.009,12.053.008,12.527,0,13V48.58c.008.478.009.941.023,1.419A20,20,0,0,0,.3,53.081a10.141,10.141,0,0,0,.962,2.931A9.556,9.556,0,0,0,3.075,58.5a9.659,9.659,0,0,0,2.492,1.814,10.315,10.315,0,0,0,2.926.971,20.711,20.711,0,0,0,3.085.272c.476.01.943.016,1.415.016.563,0,1.121,0,1.685,0H169.537c.553,0,1.115,0,1.669,0,.469,0,.95-.006,1.419-.016a20.441,20.441,0,0,0,3.079-.272,10.474,10.474,0,0,0,2.937-.971A9.663,9.663,0,0,0,181.13,58.5a9.844,9.844,0,0,0,1.819-2.485,10.167,10.167,0,0,0,.953-2.931A20.793,20.793,0,0,0,184.188,50c.006-.478.006-.941.006-1.419.012-.559.012-1.115.012-1.684V14.68c0-.564,0-1.123-.012-1.681,0-.472,0-.946-.006-1.418A20.788,20.788,0,0,0,183.9,8.5a10.187,10.187,0,0,0-.953-2.93,9.954,9.954,0,0,0-4.308-4.31A10.418,10.418,0,0,0,175.7.295a20.079,20.079,0,0,0-3.079-.272c-.469-.008-.95-.017-1.419-.02-.553,0-1.115,0-1.669,0Z" transform="translate(0 0)" fill="#a6a6a6"/>
        <path id="Path_3778" data-name="Path 3778" d="M12.529,59.755c-.469,0-.927-.006-1.392-.016a19.531,19.531,0,0,1-2.877-.251,9.057,9.057,0,0,1-2.55-.843,8.321,8.321,0,0,1-2.15-1.565,8.191,8.191,0,0,1-1.571-2.15,8.808,8.808,0,0,1-.836-2.551A19.109,19.109,0,0,1,.9,49.492c-.01-.325-.023-1.406-.023-1.406V12.527S.887,11.463.9,11.15A19.042,19.042,0,0,1,1.15,8.268,8.86,8.86,0,0,1,1.987,5.71,8.272,8.272,0,0,1,3.55,3.558,8.567,8.567,0,0,1,5.708,1.984a8.964,8.964,0,0,1,2.545-.837A19.374,19.374,0,0,1,11.14.894L12.529.875h158.2l1.406.02a19.065,19.065,0,0,1,2.861.25,9.141,9.141,0,0,1,2.572.843,8.611,8.611,0,0,1,3.718,3.725,8.871,8.871,0,0,1,.824,2.538,20,20,0,0,1,.268,2.905c0,.436,0,.9,0,1.37.012.577.012,1.127.012,1.681V46.424c0,.559,0,1.1-.012,1.655,0,.5,0,.959-.006,1.431a19.6,19.6,0,0,1-.263,2.853,8.834,8.834,0,0,1-.831,2.571,8.437,8.437,0,0,1-1.563,2.133,8.332,8.332,0,0,1-2.154,1.574,9.023,9.023,0,0,1-2.568.846,19.306,19.306,0,0,1-2.877.251c-.451.01-.923.016-1.381.016l-1.669,0Z" transform="translate(0.471 0.472)"/>
      </g>
      <g id="_Group_" data-name="&lt;Group&gt;" transform="translate(15.35 13.424)">
        <g id="_Group_2" data-name="&lt;Group&gt;">
          <g id="_Group_3" data-name="&lt;Group&gt;">
            <path id="_Path_" data-name="&lt;Path&gt;" d="M32.75,23.714a7.618,7.618,0,0,1,3.628-6.391A7.8,7.8,0,0,0,30.234,14c-2.585-.271-5.091,1.547-6.408,1.547-1.343,0-3.371-1.52-5.555-1.475a8.182,8.182,0,0,0-6.885,4.2c-2.977,5.154-.756,12.73,2.1,16.9,1.427,2.04,3.094,4.319,5.276,4.238,2.135-.089,2.933-1.362,5.51-1.362,2.553,0,3.3,1.362,5.528,1.31,2.291-.037,3.735-2.049,5.111-4.109a16.874,16.874,0,0,0,2.337-4.76,7.361,7.361,0,0,1-4.494-6.772Z" transform="translate(-9.972 -5.887)" fill="#fff"/>
            <path id="_Path_2" data-name="&lt;Path&gt;" d="M23.788,14.094A7.5,7.5,0,0,0,25.5,8.72a7.631,7.631,0,0,0-4.938,2.555,7.137,7.137,0,0,0-1.761,5.174A6.31,6.31,0,0,0,23.788,14.094Z" transform="translate(-5.215 -8.72)" fill="#fff"/>
          </g>
        </g>
        <g id="Group_1007" data-name="Group 1007" transform="translate(37.646 14.086)">
          <path id="Path_3779" data-name="Path 3779" d="M46.55,32.027H39.263l-1.75,5.167H34.427l6.9-19.116h3.206l6.9,19.116H48.3Zm-6.532-2.384h5.776l-2.847-8.385h-.08Z" transform="translate(-34.427 -17.759)" fill="#fff"/>
          <path id="Path_3780" data-name="Path 3780" d="M59.759,28.464c0,4.331-2.318,7.113-5.816,7.113a4.725,4.725,0,0,1-4.385-2.438h-.066v6.9H46.631V21.494H49.4v2.318h.053a4.944,4.944,0,0,1,4.438-2.464C57.428,21.349,59.759,24.145,59.759,28.464Zm-2.94,0c0-2.822-1.458-4.677-3.683-4.677-2.186,0-3.656,1.894-3.656,4.677,0,2.808,1.47,4.689,3.656,4.689,2.225,0,3.683-1.842,3.683-4.689Z" transform="translate(-27.845 -15.997)" fill="#fff"/>
          <path id="Path_3781" data-name="Path 3781" d="M69.724,28.463c0,4.331-2.318,7.113-5.816,7.113a4.725,4.725,0,0,1-4.385-2.438h-.066v6.9H56.6V21.494h2.769v2.318h.053a4.944,4.944,0,0,1,4.438-2.464C67.393,21.349,69.724,24.145,69.724,28.463Zm-2.94,0c0-2.822-1.458-4.677-3.683-4.677-2.186,0-3.656,1.894-3.656,4.677,0,2.808,1.47,4.689,3.656,4.689,2.225,0,3.683-1.842,3.683-4.689Z" transform="translate(-22.47 -15.997)" fill="#fff"/>
          <path id="Path_3782" data-name="Path 3782" d="M72.737,31.979c.212,1.9,2.053,3.14,4.57,3.14,2.411,0,4.146-1.245,4.146-2.954,0-1.484-1.046-2.372-3.524-2.981l-2.477-.6c-3.51-.848-5.14-2.489-5.14-5.153,0-3.3,2.874-5.564,6.956-5.564,4.039,0,6.808,2.265,6.9,5.564H81.281c-.173-1.908-1.75-3.059-4.054-3.059s-3.881,1.165-3.881,2.861c0,1.351,1.007,2.147,3.471,2.755l2.106.517c3.922.928,5.552,2.5,5.552,5.3,0,3.576-2.849,5.816-7.38,5.816-4.239,0-7.1-2.187-7.286-5.645Z" transform="translate(-15.345 -17.871)" fill="#fff"/>
          <path id="Path_3783" data-name="Path 3783" d="M85.063,19.3v3.3h2.65v2.265h-2.65v7.683c0,1.194.531,1.75,1.7,1.75a8.939,8.939,0,0,0,.941-.066v2.252a7.856,7.856,0,0,1-1.589.132c-2.822,0-3.922-1.06-3.922-3.763V24.863H80.163V22.6h2.026V19.3Z" transform="translate(-9.76 -17.1)" fill="#fff"/>
          <path id="Path_3784" data-name="Path 3784" d="M86.065,28.472c0-4.385,2.583-7.141,6.61-7.141s6.611,2.755,6.611,7.141-2.557,7.141-6.611,7.141S86.065,32.869,86.065,28.472Zm10.306,0c0-3.008-1.378-4.783-3.7-4.783s-3.7,1.789-3.7,4.783c0,3.02,1.377,4.782,3.7,4.782s3.7-1.762,3.7-4.782Z" transform="translate(-6.576 -16.005)" fill="#fff"/>
          <path id="Path_3785" data-name="Path 3785" d="M96.186,21.494h2.728v2.372h.066a3.324,3.324,0,0,1,3.352-2.518,4.412,4.412,0,0,1,.98.107v2.676a4,4,0,0,0-1.285-.173,2.883,2.883,0,0,0-2.981,3.206v8.267H96.186Z" transform="translate(-1.118 -15.997)" fill="#fff"/>
          <path id="Path_3786" data-name="Path 3786" d="M113.789,31.346c-.385,2.53-2.849,4.266-6,4.266-4.054,0-6.571-2.716-6.571-7.074s2.53-7.207,6.451-7.207c3.856,0,6.281,2.649,6.281,6.874v.98H104.1v.173a3.63,3.63,0,0,0,3.749,3.948,3.153,3.153,0,0,0,3.218-1.96Zm-9.671-4.16h6.968a3.352,3.352,0,0,0-3.418-3.537,3.528,3.528,0,0,0-3.549,3.537Z" transform="translate(1.596 -16.005)" fill="#fff"/>
        </g>
      </g>
    </g>
    <g id="_Group_4" data-name="&lt;Group&gt;" transform="translate(54.91 12.988)">
      <g id="Group_1009" data-name="Group 1009">
        <path id="Path_3787" data-name="Path 3787" d="M38.989,8.735A4.063,4.063,0,0,1,43.311,13.3c0,2.934-1.586,4.621-4.322,4.621H35.671V8.735ZM37.1,16.621h1.732a2.888,2.888,0,0,0,3.029-3.3,2.9,2.9,0,0,0-3.029-3.285H37.1Z" transform="translate(-35.671 -8.282)" fill="#fff"/>
        <path id="Path_3788" data-name="Path 3788" d="M41.686,13.7a3.284,3.284,0,1,1,6.538,0,3.284,3.284,0,1,1-6.538,0Zm5.131,0c0-1.5-.675-2.381-1.86-2.381S43.1,12.2,43.1,13.7s.669,2.386,1.858,2.386S46.817,15.213,46.817,13.7Z" transform="translate(-32.435 -7.536)" fill="#fff"/>
        <path id="Path_3789" data-name="Path 3789" d="M54.272,17.126H52.853L51.42,12.021h-.108l-1.427,5.105H48.48l-1.911-6.932h1.388L49.2,15.484h.1l1.425-5.289h1.312l1.425,5.289h.108l1.236-5.289h1.368Z" transform="translate(-29.793 -7.489)" fill="#fff"/>
        <path id="Path_3790" data-name="Path 3790" d="M53.854,10.244H55.17v1.1h.1a2.075,2.075,0,0,1,2.068-1.235,2.254,2.254,0,0,1,2.4,2.578v4.487H58.372V13.032c0-1.114-.484-1.668-1.5-1.668a1.59,1.59,0,0,0-1.655,1.757v4.055H53.854Z" transform="translate(-25.864 -7.538)" fill="#fff"/>
        <path id="Path_3791" data-name="Path 3791" d="M59.094,8.437h1.368v9.637H59.094Z" transform="translate(-23.038 -8.437)" fill="#fff"/>
        <path id="Path_3792" data-name="Path 3792" d="M61.223,13.7a3.284,3.284,0,1,1,6.538,0,3.285,3.285,0,1,1-6.538,0Zm5.131,0c0-1.5-.675-2.381-1.86-2.381s-1.858.879-1.858,2.381.669,2.386,1.858,2.386S66.354,15.213,66.354,13.7Z" transform="translate(-21.898 -7.536)" fill="#fff"/>
        <path id="Path_3793" data-name="Path 3793" d="M66.4,15.213c0-1.248.929-1.967,2.578-2.069l1.878-.108v-.6c0-.732-.484-1.145-1.419-1.145-.764,0-1.293.28-1.445.77H66.668c.14-1.191,1.26-1.954,2.832-1.954,1.738,0,2.718.865,2.718,2.329v4.736H70.9V16.2h-.108a2.332,2.332,0,0,1-2.082,1.088A2.094,2.094,0,0,1,66.4,15.213Zm4.456-.592v-.58l-1.693.108c-.955.064-1.388.389-1.388,1s.541.987,1.285.987a1.634,1.634,0,0,0,1.795-1.515Z" transform="translate(-19.097 -7.536)" fill="#fff"/>
        <path id="Path_3794" data-name="Path 3794" d="M71.348,14.606c0-2.19,1.126-3.578,2.877-3.578a2.284,2.284,0,0,1,2.126,1.216h.1V8.437h1.368v9.637H76.51v-1.1H76.4a2.406,2.406,0,0,1-2.177,1.209C72.462,18.189,71.348,16.8,71.348,14.606Zm1.413,0c0,1.47.693,2.355,1.852,2.355s1.866-.9,1.866-2.349-.72-2.355-1.866-2.355-1.852.891-1.852,2.349Z" transform="translate(-16.428 -8.437)" fill="#fff"/>
        <path id="Path_3795" data-name="Path 3795" d="M79.235,13.7a3.284,3.284,0,1,1,6.538,0,3.284,3.284,0,1,1-6.538,0Zm5.131,0c0-1.5-.675-2.381-1.86-2.381s-1.858.879-1.858,2.381.669,2.386,1.858,2.386S84.366,15.213,84.366,13.7Z" transform="translate(-12.183 -7.536)" fill="#fff"/>
        <path id="Path_3796" data-name="Path 3796" d="M84.669,10.244h1.317v1.1h.1a2.075,2.075,0,0,1,2.069-1.235,2.254,2.254,0,0,1,2.4,2.578v4.487H89.188V13.032c0-1.114-.484-1.668-1.5-1.668a1.59,1.59,0,0,0-1.655,1.757v4.055H84.669Z" transform="translate(-9.243 -7.538)" fill="#fff"/>
        <path id="Path_3797" data-name="Path 3797" d="M94.381,9.074v1.757h1.5v1.152h-1.5v3.564c0,.726.3,1.044.98,1.044a4.566,4.566,0,0,0,.522-.032V17.7a4.488,4.488,0,0,1-.744.07c-1.521,0-2.127-.535-2.127-1.872V11.983h-1.1V10.831h1.1V9.074Z" transform="translate(-5.338 -8.094)" fill="#fff"/>
        <path id="Path_3798" data-name="Path 3798" d="M95.7,8.437h1.356v3.82h.108a2.133,2.133,0,0,1,2.114-1.242A2.283,2.283,0,0,1,101.67,13.6v4.475H100.3V13.937c0-1.107-.516-1.668-1.482-1.668a1.619,1.619,0,0,0-1.745,1.757v4.048H95.7Z" transform="translate(-3.292 -8.437)" fill="#fff"/>
        <path id="Path_3799" data-name="Path 3799" d="M106.945,15.3a2.814,2.814,0,0,1-3,2.005,3.148,3.148,0,0,1-3.2-3.578,3.2,3.2,0,0,1,3.2-3.621c1.929,0,3.092,1.318,3.092,3.494v.477h-4.895v.077a1.832,1.832,0,0,0,1.846,1.986,1.661,1.661,0,0,0,1.649-.84Zm-4.812-2.234h3.5a1.672,1.672,0,0,0-1.706-1.8,1.773,1.773,0,0,0-1.795,1.8Z" transform="translate(-0.591 -7.536)" fill="#fff"/>
      </g>
    </g>
  </g>
</svg>
