<svg xmlns="http://www.w3.org/2000/svg" width="28.247" height="33.897" viewBox="0 0 28.247 33.897">
  <g id="Contact_icon" data-name="Contact icon" transform="translate(-1439 -208)">
    <path id="ic_contacts_24px" d="M27.423,0H4.825V2.825h22.6ZM4.825,33.9h22.6V31.072H4.825Zm22.6-28.247H4.825A2.833,2.833,0,0,0,2,8.474V25.423a2.833,2.833,0,0,0,2.825,2.825h22.6a2.833,2.833,0,0,0,2.825-2.825V8.474A2.833,2.833,0,0,0,27.423,5.649Zm-11.3,3.884a3.178,3.178,0,1,1-3.178,3.178A3.183,3.183,0,0,1,16.124,9.533ZM23.185,24.01H9.062V21.892c0-2.359,4.7-3.531,7.062-3.531s7.062,1.172,7.062,3.531Z" transform="translate(1437 208)" fill="#707070"/>
  </g>
</svg>
